# xmcd
#
# Track frame offsets:
#	150
#	16663
#	35813
#	51040
#	74526
#	106596
#	143569
#
# Disc length: 2334 seconds
#
# Revision: 2
# Processed by: cddbd v1.5.1PL0 Copyright (c) Steve Scherf et al.
# Submitted via: EasyCDDAExtractor 6.5.0.1
#
DISCID=54091c07
DTITLE=Dead Or Alive - You Spin Me Round(Like A Record)
DYEAR=1999
DGENRE=Dance
TTITLE0=You Spin Me Round(Like A Record)(Sugar Pumpers Radio Edit)
TTITLE1=You Spin Me Round(Like A Record)(Cleopatra Radio Edit)
TTITLE2=You Spin Me Round(Like A Record)(Marc Antonine Radio Edit)
TTITLE3=You Spin Me Round(Like A Record)(Sugar Pumpers Extended Mix)
TTITLE4=You Spin Me Round(Like A Record)(Sugar Pumpers Pumpin Mix)
TTITLE5=You Spin Me Round(Like A Record)(Vicious Mix)
TTITLE6=You Spin Me Round(Like A Record)(Marc Antonine Club Mix)
EXTD=You Spin Me Round (Like A Record) - Sex Drive
EXTT0=
EXTT1=
EXTT2=
EXTT3=
EXTT4=
EXTT5=
EXTT6=
PLAYORDER=
